PathFileType	4	(X/Y/Z)	s05c0203.trc
DataRate	CameraRate	NumFrames	NumMarkers	Units	OrigDataRate	OrigDataStartFrame	OrigNumFrames
200	200	5	47	mm	200	0	2000
Frame#	Time	racr			lacr			c7			jug			rlel			rdr			llel			ldr			s2			lic			ric			lasi			rasi			rpsi			lpsi			rgt			lgt			rth1			rth2			rth3			rth4			rlfc			rsh1			rsh2			rsh3			rsh4			rlmal			rcal			rtoe			rmt5			lth1			lth2			lth4			lth3			llfc			lmfc			lsh1			lsh2			lsh3			lsh4			llmal			lcal			ltoe			lmt5			SBIKE			LBIKE			RBIKE			
		X1	Y1	Z1	X2	Y2	Z2	X3	Y3	Z3	X4	Y4	Z4	X5	Y5	Z5	X6	Y6	Z6	X7	Y7	Z7	X8	Y8	Z8	X9	Y9	Z9	X10	Y10	Z10	X11	Y11	Z11	X12	Y12	Z12	X13	Y13	Z13	X14	Y14	Z14	X15	Y15	Z15	X16	Y16	Z16	X17	Y17	Z17	X18	Y18	Z18	X19	Y19	Z19	X20	Y20	Z20	X21	Y21	Z21	X22	Y22	Z22	X23	Y23	Z23	X24	Y24	Z24	X25	Y25	Z25	X26	Y26	Z26	X27	Y27	Z27	X28	Y28	Z28	X29	Y29	Z29	X30	Y30	Z30	X31	Y31	Z31	X32	Y32	Z32	X33	Y33	Z33	X34	Y34	Z34	X35	Y35	Z35	X36	Y36	Z36	X37	Y37	Z37	X38	Y38	Z38	X39	Y39	Z39	X40	Y40	Z40	X41	Y41	Z41	X42	Y42	Z42	X43	Y43	Z43	X44	Y44	Z44	X45	Y45	Z45	X46	Y46	Z46	X47	Y47	Z47	
0	0.0000	386.159315	1383.743133	-151.484477	390.027181	1394.754556	-444.960955	370.351331	1466.572348	-302.977122	354.792650	1310.350790	-300.148820	492.746819	1150.068722	-53.446711	682.564467	963.831375	-87.762653	470.094889	1143.483056	-545.181842	681.803556	967.732441	-502.067802	-134.759634	1154.785707	-275.087953	9.334295	1168.491779	-423.468321	21.998599	1196.254330	-144.673074	60.349851	1119.777181	-390.001320	61.643866	1135.297151	-171.428591	-102.074011	1204.804158	-237.442481	-101.104746	1203.399924	-324.884088	-19.326787	1066.804287	-103.151399	-63.592016	1060.432739	-445.497694	86.074833	1015.961283	-85.380138	174.320154	1004.930232	-84.377350	244.226484	950.881321	-86.281493	187.306421	1037.268962	-96.934999	377.078174	879.534347	-111.967075	314.575894	786.536860	-90.864371	306.503434	699.613199	-102.672254	257.162444	628.059678	-108.655500	333.859156	691.830223	-128.173921	215.448540	502.958197	-120.978707	143.526061	468.273585	-166.398991	438.288867	452.936306	-160.206260	337.948055	427.980631	-94.871685	16.173085	941.897246	-471.025733	85.313607	892.195668	-476.650463	115.533401	912.344426	-467.379127	119.996702	807.825363	-480.465597	196.543900	680.053547	-455.224178	194.517122	671.449840	-345.886134	111.005282	584.264971	-471.414240	82.955846	502.242975	-455.945891	15.455031	445.296293	-449.768045	110.213684	487.284777	-433.677148	-45.937599	338.152396	-434.794023	-114.999071	314.747363	-388.393578	164.050892	224.005451	-402.493642	51.565773	225.027246	-462.151136	-187.335602	899.292486	-283.728669	-53.445567	79.333432	-474.563861	-53.110340	78.874293	-76.881866	
1	0.0050	386.156096	1383.674987	-151.446722	390.086693	1394.733316	-444.950872	370.320900	1466.352598	-303.472284	354.834948	1310.294802	-300.115149	492.712555	1150.012098	-53.435327	682.535302	963.804067	-87.784827	470.061487	1143.453352	-545.245676	681.781028	967.732261	-502.122913	-134.735598	1154.791650	-275.121349	9.327280	1168.472339	-423.501120	21.983975	1196.270878	-144.687557	60.379731	1119.756806	-390.010495	61.629755	1135.299636	-171.404864	-102.047224	1204.807700	-237.492634	-101.097860	1203.380645	-324.903598	-19.344370	1066.812013	-103.168606	-63.583716	1060.421042	-445.516073	86.094054	1016.013793	-85.413699	174.329695	1005.053838	-84.371472	244.267566	951.021454	-86.276711	187.300202	1037.419300	-96.929227	376.987203	879.432259	-112.312371	314.599737	786.829902	-90.873466	306.469911	699.814005	-102.662123	257.084391	628.282978	-108.642664	333.843099	692.038009	-128.151956	215.339434	503.204321	-120.991303	143.407126	468.569939	-166.384065	438.123455	453.141387	-160.193444	337.787356	428.221627	-94.881818	16.123928	941.870758	-471.025626	85.254972	892.108927	-476.651348	115.487345	912.251913	-467.362716	119.898483	807.737365	-480.449270	196.375768	679.944781	-455.209146	194.351520	671.339435	-345.845187	110.895891	584.106405	-471.398897	82.921587	502.044691	-455.919135	15.452187	445.048464	-449.760156	110.144713	487.125246	-433.685998	-45.871808	337.847163	-434.791189	-114.899294	314.449877	-388.396135	164.178791	223.842904	-402.507038	51.685900	224.804433	-462.170352	-187.279662	899.403187	-284.011823	-53.474747	79.343364	-474.575271	-53.096395	78.845120	-76.888011	
2	0.0100	386.154747	1383.619471	-151.404366	390.129409	1394.719972	-444.913789	370.350981	1466.304101	-303.465095	354.837528	1310.256314	-300.097977	492.696401	1149.966828	-53.453932	682.518000	963.798515	-87.794705	470.033070	1143.414429	-545.304559	681.776512	967.721300	-502.166124	-134.726287	1154.795399	-275.134320	9.354719	1168.474651	-423.511770	21.962510	1196.284131	-144.701918	60.383246	1119.764128	-390.000615	61.615430	1135.312759	-171.409834	-102.049248	1204.807548	-237.525268	-101.078928	1203.378015	-324.929180	-19.323203	1066.843312	-103.184703	-63.570736	1060.413217	-445.517046	86.065197	1016.084236	-85.407969	174.342726	1005.190596	-84.373253	244.308667	951.180473	-86.269837	187.303027	1037.523803	-96.948489	377.046091	879.584099	-112.293461	314.595746	787.087542	-90.867570	306.441186	700.002602	-102.647221	257.014106	628.533373	-108.635236	333.795234	692.254755	-128.125933	215.204473	503.429725	-120.988633	143.293019	468.847385	-166.408406	437.980400	453.346669	-160.174111	337.635677	428.438152	-94.886624	16.102618	941.815808	-471.017123	85.195367	892.038109	-476.647736	115.427470	912.156939	-467.362956	119.791041	807.656966	-480.440533	196.237522	679.825637	-455.169189	194.161906	671.208835	-345.823851	110.784344	583.940348	-471.372123	82.856549	501.869063	-455.883885	15.429840	444.826258	-449.753174	110.110910	486.972603	-433.670399	-45.800956	337.547773	-434.782184	-114.820325	314.125853	-388.415331	164.308821	223.681647	-402.499736	51.802881	224.580598	-462.163084	-187.241252	899.440562	-284.105704	-53.461633	79.351159	-474.591211	-53.102486	78.862941	-76.883085	
3	0.0150	386.143893	1383.558229	-151.350957	390.162015	1394.680433	-444.892659	370.349530	1466.313542	-303.461669	354.866070	1310.222282	-300.085803	492.650419	1149.933393	-53.473089	682.507666	963.752145	-87.763142	469.993619	1143.362247	-545.359690	681.772852	967.717375	-502.218017	-134.728818	1154.796992	-275.174032	9.368231	1168.501140	-423.552030	22.064909	1196.662634	-145.510207	60.400675	1119.761852	-390.007061	61.603134	1135.321287	-171.421293	-101.988545	1205.410673	-235.614886	-101.059890	1203.384041	-324.965799	-19.344821	1066.738507	-103.150098	-63.566008	1060.403993	-445.532786	86.061929	1016.178885	-85.434553	174.341698	1005.296396	-84.361053	244.458790	951.181039	-86.278522	187.280251	1037.652940	-96.939493	377.289297	880.024856	-111.889036	314.578893	787.252652	-90.846635	305.269723	699.286735	-103.305278	256.960295	628.714858	-108.612858	333.823042	692.338163	-128.118144	214.776106	504.220918	-120.672104	143.528066	468.897097	-166.692814	437.846519	453.568946	-160.180225	337.470209	428.694088	-94.882826	16.063101	941.783541	-471.020446	85.264236	891.257903	-476.023118	115.139667	911.884696	-467.012843	120.045358	807.760691	-480.055837	196.259630	679.559305	-454.628638	193.983867	671.102988	-345.814750	110.670729	583.806015	-471.356557	82.814932	501.642839	-455.883651	15.399896	444.608293	-449.741289	110.511353	487.799653	-433.489785	-45.776787	337.332911	-434.854146	-114.736106	313.785933	-388.408986	164.448596	223.480591	-402.495179	51.942297	224.332702	-462.139330	-187.184635	899.517928	-284.294080	-53.468715	79.363497	-474.589807	-53.107592	78.863642	-76.889496	
4	0.0200	386.067427	1383.859070	-151.074262	390.153465	1395.090308	-444.805199	370.374092	1466.343368	-303.256952	354.917934	1310.610160	-299.959972	492.570007	1150.160861	-53.378245	682.435751	963.917890	-87.649595	469.966889	1143.518399	-545.488560	681.740770	967.685278	-502.262649	-134.648161	1154.848095	-275.228066	9.550881	1168.497108	-423.602663	22.041441	1196.652197	-145.515217	60.253242	1120.078478	-389.988986	61.570385	1135.298250	-171.428535	-101.959365	1205.481963	-235.594708	-101.022175	1203.416804	-325.042301	-19.520821	1067.092340	-103.013253	-63.619624	1060.466482	-445.553842	86.021564	1016.449405	-85.388217	174.253752	1005.703331	-84.229076	244.271240	951.630835	-86.140338	187.203739	1038.011668	-96.781462	377.353106	880.159507	-112.245789	314.414321	787.686103	-90.767815	305.168507	699.763087	-103.176702	256.670214	629.234796	-108.468630	333.728758	692.791750	-128.039785	214.632232	504.464335	-120.653743	143.467397	469.107497	-166.719500	437.602853	453.943250	-160.134475	337.136906	429.241473	-94.679744	16.082097	941.799837	-470.985267	85.245629	891.199288	-475.994724	115.426771	912.078790	-467.505835	119.970489	807.673870	-480.048228	196.019668	679.634222	-454.601222	193.674524	671.298842	-345.649327	110.503705	583.776326	-471.247997	82.647400	501.670312	-455.817626	15.420337	444.374769	-449.706408	110.464428	487.632394	-433.441343	-45.757772	337.081620	-434.965577	-114.646772	313.472673	-388.433965	164.611982	223.295421	-402.518238	52.060628	224.071646	-462.160182	-187.123442	899.454252	-283.912955	-53.453363	79.251052	-474.624636	-53.387972	79.219115	-76.952035	
